<mxfile host="app.diagrams.net" modified="2023-04-11T23:25:56.896Z" agent="Mozilla/5.0 (Windows NT 10.0; Win64; x64) AppleWebKit/537.36 (KHTML, like Gecko) Chrome/111.0.0.0 Safari/537.36" etag="kQVmrFtioL8RimYM2CfB" version="21.1.5" type="github">
  <diagram name="Página-1" id="PxHQPA1PcW-Lm_VtNbx7">
    <mxGraphModel dx="1509" dy="838" grid="1" gridSize="10" guides="1" tooltips="1" connect="1" arrows="1" fold="1" page="1" pageScale="1" pageWidth="827" pageHeight="1169" math="0" shadow="0">
      <root>
        <mxCell id="0" />
        <mxCell id="1" parent="0" />
        <mxCell id="2Y6S_l1ipbVj27D60dwM-1" value="" style="shape=umlActor;html=1;verticalLabelPosition=bottom;verticalAlign=top;align=center;" parent="1" vertex="1">
          <mxGeometry x="120" y="140" width="60" height="110" as="geometry" />
        </mxCell>
        <mxCell id="2Y6S_l1ipbVj27D60dwM-2" value="Cadastrar sala&amp;nbsp;" style="ellipse;whiteSpace=wrap;html=1;" parent="1" vertex="1">
          <mxGeometry x="330" y="180" width="140" height="70" as="geometry" />
        </mxCell>
        <mxCell id="2Y6S_l1ipbVj27D60dwM-3" value="mostrar assentos disponíveis&amp;nbsp;" style="ellipse;whiteSpace=wrap;html=1;" parent="1" vertex="1">
          <mxGeometry x="300" y="80" width="140" height="70" as="geometry" />
        </mxCell>
        <mxCell id="2Y6S_l1ipbVj27D60dwM-4" value="bloquear acesso quando a sala estiver interditada&amp;nbsp;" style="ellipse;whiteSpace=wrap;html=1;" parent="1" vertex="1">
          <mxGeometry x="230" y="10" width="140" height="70" as="geometry" />
        </mxCell>
        <mxCell id="2Y6S_l1ipbVj27D60dwM-5" value="adicionar filme" style="ellipse;whiteSpace=wrap;html=1;" parent="1" vertex="1">
          <mxGeometry x="210" y="420" width="140" height="70" as="geometry" />
        </mxCell>
        <mxCell id="2Y6S_l1ipbVj27D60dwM-6" value="Excluir filme&amp;nbsp;" style="ellipse;whiteSpace=wrap;html=1;" parent="1" vertex="1">
          <mxGeometry x="310" y="270" width="140" height="70" as="geometry" />
        </mxCell>
        <mxCell id="2Y6S_l1ipbVj27D60dwM-7" value="quando&amp;nbsp; a sala estiver cheia, impedir vendas de ingressos&amp;nbsp;" style="ellipse;whiteSpace=wrap;html=1;" parent="1" vertex="1">
          <mxGeometry x="70" y="10" width="140" height="70" as="geometry" />
        </mxCell>
        <mxCell id="2Y6S_l1ipbVj27D60dwM-8" value="registar horários dos filmes&amp;nbsp;" style="ellipse;whiteSpace=wrap;html=1;" parent="1" vertex="1">
          <mxGeometry x="260" y="340" width="140" height="70" as="geometry" />
        </mxCell>
        <mxCell id="2Y6S_l1ipbVj27D60dwM-9" value="adicionar duração do filme&amp;nbsp;" style="ellipse;whiteSpace=wrap;html=1;" parent="1" vertex="1">
          <mxGeometry x="60" y="430" width="140" height="70" as="geometry" />
        </mxCell>
        <mxCell id="2Y6S_l1ipbVj27D60dwM-11" value="Funcionario&lt;br&gt;" style="shape=umlActor;html=1;verticalLabelPosition=bottom;verticalAlign=top;align=center;" parent="1" vertex="1">
          <mxGeometry x="30" y="850" width="30" height="60" as="geometry" />
        </mxCell>
        <mxCell id="2Y6S_l1ipbVj27D60dwM-12" value="Cliente" style="shape=umlActor;html=1;verticalLabelPosition=bottom;verticalAlign=top;align=center;" parent="1" vertex="1">
          <mxGeometry x="355" y="1015" width="30" height="60" as="geometry" />
        </mxCell>
        <mxCell id="2Y6S_l1ipbVj27D60dwM-20" style="edgeStyle=orthogonalEdgeStyle;rounded=0;orthogonalLoop=1;jettySize=auto;html=1;endArrow=none;endFill=0;" parent="1" source="2Y6S_l1ipbVj27D60dwM-13" edge="1">
          <mxGeometry relative="1" as="geometry">
            <mxPoint x="50" y="815" as="targetPoint" />
          </mxGeometry>
        </mxCell>
        <mxCell id="2Y6S_l1ipbVj27D60dwM-13" value="Manter salas" style="ellipse;whiteSpace=wrap;html=1;" parent="1" vertex="1">
          <mxGeometry x="170" y="695" width="140" height="70" as="geometry" />
        </mxCell>
        <mxCell id="2Y6S_l1ipbVj27D60dwM-21" style="edgeStyle=orthogonalEdgeStyle;rounded=0;orthogonalLoop=1;jettySize=auto;html=1;endArrow=none;endFill=0;" parent="1" source="2Y6S_l1ipbVj27D60dwM-14" edge="1">
          <mxGeometry relative="1" as="geometry">
            <mxPoint x="70" y="830" as="targetPoint" />
          </mxGeometry>
        </mxCell>
        <mxCell id="2Y6S_l1ipbVj27D60dwM-14" value="Manter filmes&amp;nbsp;" style="ellipse;whiteSpace=wrap;html=1;" parent="1" vertex="1">
          <mxGeometry x="170" y="795" width="140" height="70" as="geometry" />
        </mxCell>
        <mxCell id="2Y6S_l1ipbVj27D60dwM-22" style="edgeStyle=orthogonalEdgeStyle;rounded=0;orthogonalLoop=1;jettySize=auto;html=1;endArrow=none;endFill=0;" parent="1" source="2Y6S_l1ipbVj27D60dwM-15" edge="1">
          <mxGeometry relative="1" as="geometry">
            <mxPoint x="80" y="895" as="targetPoint" />
          </mxGeometry>
        </mxCell>
        <mxCell id="2Y6S_l1ipbVj27D60dwM-15" value="Manter sessões do filme" style="ellipse;whiteSpace=wrap;html=1;" parent="1" vertex="1">
          <mxGeometry x="160" y="895" width="140" height="70" as="geometry" />
        </mxCell>
        <mxCell id="2Y6S_l1ipbVj27D60dwM-19" style="edgeStyle=orthogonalEdgeStyle;rounded=0;orthogonalLoop=1;jettySize=auto;html=1;endArrow=none;endFill=0;" parent="1" source="2Y6S_l1ipbVj27D60dwM-16" edge="1">
          <mxGeometry relative="1" as="geometry">
            <mxPoint x="340" y="1045" as="targetPoint" />
          </mxGeometry>
        </mxCell>
        <mxCell id="2Y6S_l1ipbVj27D60dwM-23" style="edgeStyle=orthogonalEdgeStyle;rounded=0;orthogonalLoop=1;jettySize=auto;html=1;endArrow=none;endFill=0;" parent="1" source="2Y6S_l1ipbVj27D60dwM-16" edge="1">
          <mxGeometry relative="1" as="geometry">
            <mxPoint x="60" y="925" as="targetPoint" />
          </mxGeometry>
        </mxCell>
        <mxCell id="2Y6S_l1ipbVj27D60dwM-16" value="Manter ingresso&amp;nbsp;" style="ellipse;whiteSpace=wrap;html=1;" parent="1" vertex="1">
          <mxGeometry x="120" y="1010" width="140" height="70" as="geometry" />
        </mxCell>
        <mxCell id="2Y6S_l1ipbVj27D60dwM-25" value="Manter sessão" style="ellipse;whiteSpace=wrap;html=1;" parent="1" vertex="1">
          <mxGeometry x="550" y="720" width="140" height="70" as="geometry" />
        </mxCell>
        <mxCell id="2Y6S_l1ipbVj27D60dwM-26" value="Manter salas" style="ellipse;whiteSpace=wrap;html=1;" parent="1" vertex="1">
          <mxGeometry x="550" y="560" width="140" height="70" as="geometry" />
        </mxCell>
        <mxCell id="2Y6S_l1ipbVj27D60dwM-27" value="Manter filmes&amp;nbsp;" style="ellipse;whiteSpace=wrap;html=1;" parent="1" vertex="1">
          <mxGeometry x="550" y="640" width="140" height="70" as="geometry" />
        </mxCell>
        <mxCell id="2Y6S_l1ipbVj27D60dwM-28" value="Manter horário" style="ellipse;whiteSpace=wrap;html=1;" parent="1" vertex="1">
          <mxGeometry x="550" y="960" width="140" height="70" as="geometry" />
        </mxCell>
        <mxCell id="2Y6S_l1ipbVj27D60dwM-29" value="Manter assentos" style="ellipse;whiteSpace=wrap;html=1;" parent="1" vertex="1">
          <mxGeometry x="550" y="880" width="140" height="70" as="geometry" />
        </mxCell>
        <mxCell id="2Y6S_l1ipbVj27D60dwM-30" value="Comprar/Vender/Manter ingressos&amp;nbsp;" style="ellipse;whiteSpace=wrap;html=1;" parent="1" vertex="1">
          <mxGeometry x="550" y="800" width="140" height="70" as="geometry" />
        </mxCell>
        <mxCell id="2Y6S_l1ipbVj27D60dwM-31" value="Funcionario&lt;br&gt;" style="shape=umlActor;html=1;verticalLabelPosition=bottom;verticalAlign=top;align=center;" parent="1" vertex="1">
          <mxGeometry x="450" y="750" width="30" height="60" as="geometry" />
        </mxCell>
        <mxCell id="2Y6S_l1ipbVj27D60dwM-32" value="Cliente" style="shape=umlActor;html=1;verticalLabelPosition=bottom;verticalAlign=top;align=center;" parent="1" vertex="1">
          <mxGeometry x="790" y="860" width="30" height="60" as="geometry" />
        </mxCell>
        <mxCell id="2Y6S_l1ipbVj27D60dwM-33" value="" style="edgeStyle=none;html=1;endArrow=none;verticalAlign=bottom;rounded=0;" parent="1" edge="1">
          <mxGeometry width="160" relative="1" as="geometry">
            <mxPoint x="470" y="740" as="sourcePoint" />
            <mxPoint x="550" y="600" as="targetPoint" />
          </mxGeometry>
        </mxCell>
        <mxCell id="2Y6S_l1ipbVj27D60dwM-34" value="" style="edgeStyle=none;html=1;endArrow=none;verticalAlign=bottom;rounded=0;entryX=0;entryY=0.5;entryDx=0;entryDy=0;" parent="1" target="2Y6S_l1ipbVj27D60dwM-25" edge="1">
          <mxGeometry width="160" relative="1" as="geometry">
            <mxPoint x="490" y="780" as="sourcePoint" />
            <mxPoint x="534" y="780" as="targetPoint" />
          </mxGeometry>
        </mxCell>
        <mxCell id="2Y6S_l1ipbVj27D60dwM-35" value="" style="edgeStyle=none;html=1;endArrow=none;verticalAlign=bottom;rounded=0;entryX=0;entryY=0.5;entryDx=0;entryDy=0;" parent="1" target="2Y6S_l1ipbVj27D60dwM-29" edge="1">
          <mxGeometry width="160" relative="1" as="geometry">
            <mxPoint x="499" y="860" as="sourcePoint" />
            <mxPoint x="560" y="910" as="targetPoint" />
            <Array as="points" />
          </mxGeometry>
        </mxCell>
        <mxCell id="2Y6S_l1ipbVj27D60dwM-36" value="" style="edgeStyle=none;html=1;endArrow=none;verticalAlign=bottom;rounded=0;entryX=0.014;entryY=0.614;entryDx=0;entryDy=0;entryPerimeter=0;" parent="1" target="2Y6S_l1ipbVj27D60dwM-27" edge="1">
          <mxGeometry width="160" relative="1" as="geometry">
            <mxPoint x="490" y="760" as="sourcePoint" />
            <mxPoint x="580" y="630" as="targetPoint" />
          </mxGeometry>
        </mxCell>
        <mxCell id="2Y6S_l1ipbVj27D60dwM-37" value="" style="edgeStyle=none;html=1;endArrow=none;verticalAlign=bottom;rounded=0;entryX=0;entryY=0.5;entryDx=0;entryDy=0;" parent="1" target="2Y6S_l1ipbVj27D60dwM-30" edge="1">
          <mxGeometry width="160" relative="1" as="geometry">
            <mxPoint x="500" y="810" as="sourcePoint" />
            <mxPoint x="590" y="640" as="targetPoint" />
            <Array as="points" />
          </mxGeometry>
        </mxCell>
        <mxCell id="2Y6S_l1ipbVj27D60dwM-38" value="" style="edgeStyle=none;html=1;endArrow=none;verticalAlign=bottom;rounded=0;" parent="1" edge="1">
          <mxGeometry width="160" relative="1" as="geometry">
            <mxPoint x="460" y="840" as="sourcePoint" />
            <mxPoint x="550" y="990" as="targetPoint" />
          </mxGeometry>
        </mxCell>
        <mxCell id="2Y6S_l1ipbVj27D60dwM-39" value="" style="edgeStyle=none;html=1;endArrow=none;verticalAlign=bottom;rounded=0;exitX=0.993;exitY=0.614;exitDx=0;exitDy=0;exitPerimeter=0;" parent="1" source="2Y6S_l1ipbVj27D60dwM-30" edge="1">
          <mxGeometry width="160" relative="1" as="geometry">
            <mxPoint x="710" y="1040" as="sourcePoint" />
            <mxPoint x="790" y="900" as="targetPoint" />
          </mxGeometry>
        </mxCell>
        <mxCell id="2Y6S_l1ipbVj27D60dwM-41" value="" style="edgeStyle=none;html=1;endArrow=none;verticalAlign=bottom;rounded=0;exitX=0.314;exitY=1;exitDx=0;exitDy=0;exitPerimeter=0;" parent="1" source="2Y6S_l1ipbVj27D60dwM-7" edge="1">
          <mxGeometry width="160" relative="1" as="geometry">
            <mxPoint x="-40" y="140" as="sourcePoint" />
            <mxPoint x="130" y="130" as="targetPoint" />
          </mxGeometry>
        </mxCell>
        <mxCell id="2Y6S_l1ipbVj27D60dwM-43" value="" style="edgeStyle=none;html=1;endArrow=none;verticalAlign=bottom;rounded=0;" parent="1" target="2Y6S_l1ipbVj27D60dwM-4" edge="1">
          <mxGeometry width="160" relative="1" as="geometry">
            <mxPoint x="170" y="130" as="sourcePoint" />
            <mxPoint x="310" y="80" as="targetPoint" />
          </mxGeometry>
        </mxCell>
        <mxCell id="2Y6S_l1ipbVj27D60dwM-44" value="" style="edgeStyle=none;html=1;endArrow=none;verticalAlign=bottom;rounded=0;entryX=0;entryY=0.671;entryDx=0;entryDy=0;entryPerimeter=0;" parent="1" target="2Y6S_l1ipbVj27D60dwM-3" edge="1">
          <mxGeometry width="160" relative="1" as="geometry">
            <mxPoint x="200" y="160" as="sourcePoint" />
            <mxPoint x="300" y="120" as="targetPoint" />
          </mxGeometry>
        </mxCell>
        <mxCell id="2Y6S_l1ipbVj27D60dwM-45" value="" style="edgeStyle=none;html=1;endArrow=none;verticalAlign=bottom;rounded=0;entryX=0;entryY=0.671;entryDx=0;entryDy=0;entryPerimeter=0;" parent="1" edge="1">
          <mxGeometry width="160" relative="1" as="geometry">
            <mxPoint x="200" y="220" as="sourcePoint" />
            <mxPoint x="330" y="220" as="targetPoint" />
          </mxGeometry>
        </mxCell>
        <mxCell id="2Y6S_l1ipbVj27D60dwM-46" value="" style="edgeStyle=none;html=1;endArrow=none;verticalAlign=bottom;rounded=0;entryX=0;entryY=0.671;entryDx=0;entryDy=0;entryPerimeter=0;" parent="1" edge="1">
          <mxGeometry width="160" relative="1" as="geometry">
            <mxPoint x="200" y="250" as="sourcePoint" />
            <mxPoint x="310" y="304.5" as="targetPoint" />
          </mxGeometry>
        </mxCell>
        <mxCell id="2Y6S_l1ipbVj27D60dwM-47" value="" style="edgeStyle=none;html=1;endArrow=none;verticalAlign=bottom;rounded=0;entryX=0;entryY=0.671;entryDx=0;entryDy=0;entryPerimeter=0;" parent="1" edge="1">
          <mxGeometry width="160" relative="1" as="geometry">
            <mxPoint x="170" y="260" as="sourcePoint" />
            <mxPoint x="260" y="364.5" as="targetPoint" />
          </mxGeometry>
        </mxCell>
        <mxCell id="2Y6S_l1ipbVj27D60dwM-48" value="" style="edgeStyle=none;html=1;endArrow=none;verticalAlign=bottom;rounded=0;entryX=0;entryY=0.671;entryDx=0;entryDy=0;entryPerimeter=0;" parent="1" edge="1">
          <mxGeometry width="160" relative="1" as="geometry">
            <mxPoint x="150" y="270" as="sourcePoint" />
            <mxPoint x="230" y="430" as="targetPoint" />
          </mxGeometry>
        </mxCell>
        <mxCell id="2Y6S_l1ipbVj27D60dwM-49" value="" style="edgeStyle=none;html=1;endArrow=none;verticalAlign=bottom;rounded=0;entryX=0;entryY=0.671;entryDx=0;entryDy=0;entryPerimeter=0;" parent="1" edge="1">
          <mxGeometry width="160" relative="1" as="geometry">
            <mxPoint x="130" y="270" as="sourcePoint" />
            <mxPoint x="120" y="430" as="targetPoint" />
          </mxGeometry>
        </mxCell>
        <mxCell id="ppIVRf_82uOVk4r5gdEc-1" value="Funcionário&amp;nbsp;" style="shape=umlActor;html=1;verticalLabelPosition=bottom;verticalAlign=top;align=center;" vertex="1" parent="1">
          <mxGeometry x="70" y="1340" width="60" height="100" as="geometry" />
        </mxCell>
        <mxCell id="ppIVRf_82uOVk4r5gdEc-2" value="Solicitação de avaliação&amp;nbsp;" style="ellipse;whiteSpace=wrap;html=1;" vertex="1" parent="1">
          <mxGeometry x="220" y="1200" width="140" height="70" as="geometry" />
        </mxCell>
        <mxCell id="ppIVRf_82uOVk4r5gdEc-3" value="Cadastrar dependentes&amp;nbsp;" style="ellipse;whiteSpace=wrap;html=1;" vertex="1" parent="1">
          <mxGeometry x="220" y="1280" width="140" height="70" as="geometry" />
        </mxCell>
        <mxCell id="ppIVRf_82uOVk4r5gdEc-4" value="efetuação de pagamento&amp;nbsp;" style="ellipse;whiteSpace=wrap;html=1;" vertex="1" parent="1">
          <mxGeometry x="220" y="1450" width="140" height="70" as="geometry" />
        </mxCell>
        <mxCell id="ppIVRf_82uOVk4r5gdEc-5" value="Manter sócio" style="ellipse;whiteSpace=wrap;html=1;" vertex="1" parent="1">
          <mxGeometry x="220" y="1360" width="140" height="70" as="geometry" />
        </mxCell>
        <mxCell id="ppIVRf_82uOVk4r5gdEc-6" value="" style="edgeStyle=none;html=1;endArrow=none;verticalAlign=bottom;rounded=0;entryX=0.5;entryY=0;entryDx=0;entryDy=0;exitX=0;exitY=0.5;exitDx=0;exitDy=0;entryPerimeter=0;" edge="1" parent="1" source="ppIVRf_82uOVk4r5gdEc-2" target="ppIVRf_82uOVk4r5gdEc-1">
          <mxGeometry width="160" relative="1" as="geometry">
            <mxPoint x="140" y="1280" as="sourcePoint" />
            <mxPoint x="191" y="1335" as="targetPoint" />
            <Array as="points" />
          </mxGeometry>
        </mxCell>
        <mxCell id="ppIVRf_82uOVk4r5gdEc-7" value="" style="edgeStyle=none;html=1;endArrow=none;verticalAlign=bottom;rounded=0;exitX=0;exitY=0.5;exitDx=0;exitDy=0;" edge="1" parent="1" source="ppIVRf_82uOVk4r5gdEc-3">
          <mxGeometry width="160" relative="1" as="geometry">
            <mxPoint x="230" y="1245" as="sourcePoint" />
            <mxPoint x="120" y="1350" as="targetPoint" />
            <Array as="points" />
          </mxGeometry>
        </mxCell>
        <mxCell id="ppIVRf_82uOVk4r5gdEc-8" value="" style="edgeStyle=none;html=1;endArrow=none;verticalAlign=bottom;rounded=0;exitX=0;exitY=0.5;exitDx=0;exitDy=0;" edge="1" parent="1" target="ppIVRf_82uOVk4r5gdEc-1">
          <mxGeometry width="160" relative="1" as="geometry">
            <mxPoint x="220" y="1395" as="sourcePoint" />
            <mxPoint x="110" y="1430" as="targetPoint" />
            <Array as="points" />
          </mxGeometry>
        </mxCell>
        <mxCell id="ppIVRf_82uOVk4r5gdEc-9" value="" style="edgeStyle=none;html=1;endArrow=none;verticalAlign=bottom;rounded=0;exitX=0;exitY=0.5;exitDx=0;exitDy=0;" edge="1" parent="1" target="ppIVRf_82uOVk4r5gdEc-1">
          <mxGeometry width="160" relative="1" as="geometry">
            <mxPoint x="220" y="1482.5" as="sourcePoint" />
            <mxPoint x="110" y="1487.5" as="targetPoint" />
            <Array as="points" />
          </mxGeometry>
        </mxCell>
        <mxCell id="ppIVRf_82uOVk4r5gdEc-10" value="Cliente" style="shape=umlActor;html=1;verticalLabelPosition=bottom;verticalAlign=top;align=center;" vertex="1" parent="1">
          <mxGeometry x="401" y="1450" width="26" height="50" as="geometry" />
        </mxCell>
        <mxCell id="ppIVRf_82uOVk4r5gdEc-13" value="" style="edgeStyle=none;html=1;endArrow=none;verticalAlign=bottom;rounded=0;" edge="1" parent="1">
          <mxGeometry width="160" relative="1" as="geometry">
            <mxPoint x="400" y="1480" as="sourcePoint" />
            <mxPoint x="360" y="1480" as="targetPoint" />
            <Array as="points" />
          </mxGeometry>
        </mxCell>
        <mxCell id="ppIVRf_82uOVk4r5gdEc-16" value="2" style="rounded=1;whiteSpace=wrap;html=1;" vertex="1" parent="1">
          <mxGeometry x="10" y="1180" width="30" height="30" as="geometry" />
        </mxCell>
        <mxCell id="ppIVRf_82uOVk4r5gdEc-17" value="1" style="rounded=1;whiteSpace=wrap;html=1;arcSize=37;" vertex="1" parent="1">
          <mxGeometry x="10" y="630" width="30" height="30" as="geometry" />
        </mxCell>
        <mxCell id="ppIVRf_82uOVk4r5gdEc-33" value="Apresentar pedido de aceitação&amp;nbsp;" style="ellipse;whiteSpace=wrap;html=1;" vertex="1" parent="1">
          <mxGeometry x="495" y="1190" width="140" height="70" as="geometry" />
        </mxCell>
        <mxCell id="ppIVRf_82uOVk4r5gdEc-34" value="Quitar mensalidade&amp;nbsp;" style="ellipse;whiteSpace=wrap;html=1;" vertex="1" parent="1">
          <mxGeometry x="565" y="1540" width="140" height="70" as="geometry" />
        </mxCell>
        <mxCell id="ppIVRf_82uOVk4r5gdEc-35" value="associar socio&amp;nbsp;" style="ellipse;whiteSpace=wrap;html=1;" vertex="1" parent="1">
          <mxGeometry x="525" y="1350" width="140" height="70" as="geometry" />
        </mxCell>
        <mxCell id="ppIVRf_82uOVk4r5gdEc-36" value="Gerar mensalidade&amp;nbsp;" style="ellipse;whiteSpace=wrap;html=1;" vertex="1" parent="1">
          <mxGeometry x="665" y="1260" width="140" height="70" as="geometry" />
        </mxCell>
        <mxCell id="ppIVRf_82uOVk4r5gdEc-37" value="associar dependentes&amp;nbsp;" style="ellipse;whiteSpace=wrap;html=1;" vertex="1" parent="1">
          <mxGeometry x="565" y="1450" width="140" height="70" as="geometry" />
        </mxCell>
        <mxCell id="ppIVRf_82uOVk4r5gdEc-38" value="&amp;lt;&amp;lt;extend&amp;gt;&amp;gt;" style="edgeStyle=none;html=1;startArrow=open;endArrow=none;startSize=12;verticalAlign=bottom;dashed=1;labelBackgroundColor=none;rounded=0;entryX=0.5;entryY=0;entryDx=0;entryDy=0;exitX=1;exitY=1;exitDx=0;exitDy=0;" edge="1" parent="1" source="ppIVRf_82uOVk4r5gdEc-35" target="ppIVRf_82uOVk4r5gdEc-37">
          <mxGeometry width="160" relative="1" as="geometry">
            <mxPoint x="660" y="1420" as="sourcePoint" />
            <mxPoint x="820" y="1420" as="targetPoint" />
          </mxGeometry>
        </mxCell>
        <mxCell id="ppIVRf_82uOVk4r5gdEc-39" value="Clube" style="shape=umlActor;html=1;verticalLabelPosition=bottom;verticalAlign=top;align=center;" vertex="1" parent="1">
          <mxGeometry x="770" y="1390" width="30" height="60" as="geometry" />
        </mxCell>
        <mxCell id="ppIVRf_82uOVk4r5gdEc-42" value="" style="edgeStyle=none;html=1;endArrow=none;verticalAlign=bottom;rounded=0;" edge="1" parent="1">
          <mxGeometry width="160" relative="1" as="geometry">
            <mxPoint x="730" y="1330" as="sourcePoint" />
            <mxPoint x="770" y="1380" as="targetPoint" />
          </mxGeometry>
        </mxCell>
        <mxCell id="ppIVRf_82uOVk4r5gdEc-43" value="" style="edgeStyle=none;html=1;endArrow=none;verticalAlign=bottom;rounded=0;" edge="1" parent="1" source="ppIVRf_82uOVk4r5gdEc-35">
          <mxGeometry width="160" relative="1" as="geometry">
            <mxPoint x="665" y="1385" as="sourcePoint" />
            <mxPoint x="760" y="1410" as="targetPoint" />
          </mxGeometry>
        </mxCell>
        <mxCell id="ppIVRf_82uOVk4r5gdEc-44" value="" style="edgeStyle=none;html=1;endArrow=none;verticalAlign=bottom;rounded=0;exitX=0.986;exitY=0.4;exitDx=0;exitDy=0;exitPerimeter=0;" edge="1" parent="1" source="ppIVRf_82uOVk4r5gdEc-34">
          <mxGeometry width="160" relative="1" as="geometry">
            <mxPoint x="710" y="1570" as="sourcePoint" />
            <mxPoint x="760" y="1480" as="targetPoint" />
          </mxGeometry>
        </mxCell>
        <mxCell id="ppIVRf_82uOVk4r5gdEc-45" value="Candidato" style="shape=umlActor;html=1;verticalLabelPosition=bottom;verticalAlign=top;align=center;" vertex="1" parent="1">
          <mxGeometry x="480" y="1280" width="30" height="60" as="geometry" />
        </mxCell>
        <mxCell id="ppIVRf_82uOVk4r5gdEc-46" value="" style="edgeStyle=none;html=1;endArrow=none;verticalAlign=bottom;rounded=0;" edge="1" parent="1">
          <mxGeometry width="160" relative="1" as="geometry">
            <mxPoint x="550" y="1260" as="sourcePoint" />
            <mxPoint x="500" y="1300" as="targetPoint" />
          </mxGeometry>
        </mxCell>
        <mxCell id="ppIVRf_82uOVk4r5gdEc-47" value="" style="edgeStyle=none;html=1;endArrow=none;verticalAlign=bottom;rounded=0;entryX=0.35;entryY=0.014;entryDx=0;entryDy=0;entryPerimeter=0;" edge="1" parent="1" target="ppIVRf_82uOVk4r5gdEc-35">
          <mxGeometry width="160" relative="1" as="geometry">
            <mxPoint x="500" y="1320" as="sourcePoint" />
            <mxPoint x="660" y="1320" as="targetPoint" />
          </mxGeometry>
        </mxCell>
        <mxCell id="ppIVRf_82uOVk4r5gdEc-48" value="socio" style="shape=umlActor;html=1;verticalLabelPosition=bottom;verticalAlign=top;align=center;" vertex="1" parent="1">
          <mxGeometry x="495" y="1580" width="30" height="60" as="geometry" />
        </mxCell>
        <mxCell id="ppIVRf_82uOVk4r5gdEc-49" value="" style="edgeStyle=none;html=1;endArrow=block;endFill=0;endSize=12;verticalAlign=bottom;rounded=0;" edge="1" parent="1">
          <mxGeometry width="160" relative="1" as="geometry">
            <mxPoint x="510" y="1580" as="sourcePoint" />
            <mxPoint x="490" y="1370" as="targetPoint" />
          </mxGeometry>
        </mxCell>
        <mxCell id="ppIVRf_82uOVk4r5gdEc-50" value="" style="edgeStyle=none;html=1;endArrow=none;verticalAlign=bottom;rounded=0;" edge="1" parent="1" target="ppIVRf_82uOVk4r5gdEc-34">
          <mxGeometry width="160" relative="1" as="geometry">
            <mxPoint x="540" y="1630" as="sourcePoint" />
            <mxPoint x="700" y="1630" as="targetPoint" />
          </mxGeometry>
        </mxCell>
        <mxCell id="ppIVRf_82uOVk4r5gdEc-78" value="candidato" style="shape=umlActor;html=1;verticalLabelPosition=bottom;verticalAlign=top;align=center;" vertex="1" parent="1">
          <mxGeometry x="70" y="1810" width="30" height="60" as="geometry" />
        </mxCell>
        <mxCell id="ppIVRf_82uOVk4r5gdEc-79" value="Associar se ao clube&amp;nbsp;" style="ellipse;whiteSpace=wrap;html=1;" vertex="1" parent="1">
          <mxGeometry x="210" y="1800" width="140" height="70" as="geometry" />
        </mxCell>
        <mxCell id="ppIVRf_82uOVk4r5gdEc-80" value="Associar sócio&amp;nbsp;" style="ellipse;whiteSpace=wrap;html=1;" vertex="1" parent="1">
          <mxGeometry x="210" y="1900" width="140" height="70" as="geometry" />
        </mxCell>
        <mxCell id="ppIVRf_82uOVk4r5gdEc-81" value="Assiciar dependentes&amp;nbsp;" style="ellipse;whiteSpace=wrap;html=1;" vertex="1" parent="1">
          <mxGeometry x="330" y="1995" width="140" height="70" as="geometry" />
        </mxCell>
        <mxCell id="ppIVRf_82uOVk4r5gdEc-82" value="Manter mensalidade&amp;nbsp;" style="ellipse;whiteSpace=wrap;html=1;" vertex="1" parent="1">
          <mxGeometry x="210" y="2060" width="140" height="70" as="geometry" />
        </mxCell>
        <mxCell id="ppIVRf_82uOVk4r5gdEc-83" value="Avaliar a solicitação&amp;nbsp;" style="ellipse;whiteSpace=wrap;html=1;" vertex="1" parent="1">
          <mxGeometry x="400" y="1754" width="140" height="70" as="geometry" />
        </mxCell>
        <mxCell id="ppIVRf_82uOVk4r5gdEc-84" value="conselho&amp;nbsp;" style="shape=umlActor;html=1;verticalLabelPosition=bottom;verticalAlign=top;align=center;" vertex="1" parent="1">
          <mxGeometry x="675" y="1790" width="30" height="60" as="geometry" />
        </mxCell>
        <mxCell id="ppIVRf_82uOVk4r5gdEc-85" value="clube" style="shape=umlActor;html=1;verticalLabelPosition=bottom;verticalAlign=top;align=center;" vertex="1" parent="1">
          <mxGeometry x="650" y="2000" width="30" height="60" as="geometry" />
        </mxCell>
        <mxCell id="ppIVRf_82uOVk4r5gdEc-86" value="" style="edgeStyle=none;html=1;endArrow=none;verticalAlign=bottom;rounded=0;entryX=0;entryY=0.5;entryDx=0;entryDy=0;" edge="1" parent="1" source="ppIVRf_82uOVk4r5gdEc-78" target="ppIVRf_82uOVk4r5gdEc-79">
          <mxGeometry width="160" relative="1" as="geometry">
            <mxPoint x="80" y="1940" as="sourcePoint" />
            <mxPoint x="240" y="1940" as="targetPoint" />
          </mxGeometry>
        </mxCell>
        <mxCell id="ppIVRf_82uOVk4r5gdEc-87" value="" style="edgeStyle=none;html=1;endArrow=none;verticalAlign=bottom;rounded=0;entryX=0;entryY=0.5;entryDx=0;entryDy=0;" edge="1" parent="1" target="ppIVRf_82uOVk4r5gdEc-80">
          <mxGeometry width="160" relative="1" as="geometry">
            <mxPoint x="120" y="1880" as="sourcePoint" />
            <mxPoint x="220" y="1960" as="targetPoint" />
          </mxGeometry>
        </mxCell>
        <mxCell id="ppIVRf_82uOVk4r5gdEc-88" value="" style="edgeStyle=none;html=1;endArrow=none;verticalAlign=bottom;rounded=0;" edge="1" parent="1">
          <mxGeometry width="160" relative="1" as="geometry">
            <mxPoint x="90" y="1900" as="sourcePoint" />
            <mxPoint x="210" y="2090" as="targetPoint" />
          </mxGeometry>
        </mxCell>
        <mxCell id="ppIVRf_82uOVk4r5gdEc-89" value="&amp;lt;&amp;lt;extend&amp;gt;&amp;gt;" style="edgeStyle=none;html=1;startArrow=open;endArrow=none;startSize=12;verticalAlign=bottom;dashed=1;labelBackgroundColor=none;rounded=0;exitX=0.986;exitY=0.729;exitDx=0;exitDy=0;exitPerimeter=0;" edge="1" parent="1" source="ppIVRf_82uOVk4r5gdEc-80">
          <mxGeometry width="160" relative="1" as="geometry">
            <mxPoint x="330" y="2030" as="sourcePoint" />
            <mxPoint x="370" y="1990" as="targetPoint" />
          </mxGeometry>
        </mxCell>
        <mxCell id="ppIVRf_82uOVk4r5gdEc-90" value="&amp;lt;&amp;lt;include&amp;gt;&amp;gt;" style="edgeStyle=none;html=1;endArrow=open;verticalAlign=bottom;dashed=1;labelBackgroundColor=none;rounded=0;entryX=0;entryY=0.671;entryDx=0;entryDy=0;entryPerimeter=0;" edge="1" parent="1" target="ppIVRf_82uOVk4r5gdEc-83">
          <mxGeometry width="160" relative="1" as="geometry">
            <mxPoint x="350" y="1830" as="sourcePoint" />
            <mxPoint x="510" y="1830" as="targetPoint" />
          </mxGeometry>
        </mxCell>
        <mxCell id="ppIVRf_82uOVk4r5gdEc-91" value="" style="edgeStyle=none;html=1;endArrow=none;verticalAlign=bottom;rounded=0;" edge="1" parent="1" source="ppIVRf_82uOVk4r5gdEc-83">
          <mxGeometry width="160" relative="1" as="geometry">
            <mxPoint x="540" y="1789" as="sourcePoint" />
            <mxPoint x="660" y="1830" as="targetPoint" />
          </mxGeometry>
        </mxCell>
        <mxCell id="ppIVRf_82uOVk4r5gdEc-92" value="" style="edgeStyle=none;html=1;endArrow=none;verticalAlign=bottom;rounded=0;entryX=0;entryY=0.3333333333333333;entryDx=0;entryDy=0;entryPerimeter=0;exitX=1;exitY=0.5;exitDx=0;exitDy=0;" edge="1" parent="1" source="ppIVRf_82uOVk4r5gdEc-80" target="ppIVRf_82uOVk4r5gdEc-85">
          <mxGeometry width="160" relative="1" as="geometry">
            <mxPoint x="360" y="1960" as="sourcePoint" />
            <mxPoint x="520" y="1960" as="targetPoint" />
          </mxGeometry>
        </mxCell>
        <mxCell id="ppIVRf_82uOVk4r5gdEc-93" value="" style="edgeStyle=none;html=1;endArrow=none;verticalAlign=bottom;rounded=0;" edge="1" parent="1" source="ppIVRf_82uOVk4r5gdEc-82">
          <mxGeometry width="160" relative="1" as="geometry">
            <mxPoint x="350" y="2095" as="sourcePoint" />
            <mxPoint x="640" y="2050" as="targetPoint" />
          </mxGeometry>
        </mxCell>
        <mxCell id="ppIVRf_82uOVk4r5gdEc-94" value="" style="edgeStyle=none;html=1;endArrow=none;verticalAlign=bottom;rounded=0;" edge="1" parent="1">
          <mxGeometry width="160" relative="1" as="geometry">
            <mxPoint x="440" y="1720" as="sourcePoint" />
            <mxPoint x="440" y="1170" as="targetPoint" />
          </mxGeometry>
        </mxCell>
        <mxCell id="ppIVRf_82uOVk4r5gdEc-97" value="" style="edgeStyle=none;html=1;endArrow=none;verticalAlign=bottom;rounded=0;" edge="1" parent="1">
          <mxGeometry width="160" relative="1" as="geometry">
            <mxPoint x="20" y="1720" as="sourcePoint" />
            <mxPoint x="810" y="1720" as="targetPoint" />
          </mxGeometry>
        </mxCell>
        <mxCell id="ppIVRf_82uOVk4r5gdEc-98" value="" style="edgeStyle=none;html=1;endArrow=none;verticalAlign=bottom;rounded=0;" edge="1" parent="1">
          <mxGeometry width="160" relative="1" as="geometry">
            <mxPoint x="10" y="1170" as="sourcePoint" />
            <mxPoint x="810" y="1170" as="targetPoint" />
          </mxGeometry>
        </mxCell>
        <mxCell id="ppIVRf_82uOVk4r5gdEc-125" value="Funcionário" style="shape=umlActor;html=1;verticalLabelPosition=bottom;verticalAlign=top;align=center;" vertex="1" parent="1">
          <mxGeometry x="30" y="2430" width="55" height="80" as="geometry" />
        </mxCell>
        <mxCell id="ppIVRf_82uOVk4r5gdEc-126" value="Manter veiculo&amp;nbsp;" style="ellipse;whiteSpace=wrap;html=1;" vertex="1" parent="1">
          <mxGeometry x="190" y="2250" width="140" height="70" as="geometry" />
        </mxCell>
        <mxCell id="ppIVRf_82uOVk4r5gdEc-127" value="solicitar/analise de aluguel&amp;nbsp;" style="ellipse;whiteSpace=wrap;html=1;" vertex="1" parent="1">
          <mxGeometry x="190" y="2350" width="140" height="70" as="geometry" />
        </mxCell>
        <mxCell id="ppIVRf_82uOVk4r5gdEc-128" value="Manter cadastro&amp;nbsp;" style="ellipse;whiteSpace=wrap;html=1;" vertex="1" parent="1">
          <mxGeometry x="190" y="2450" width="140" height="70" as="geometry" />
        </mxCell>
        <mxCell id="ppIVRf_82uOVk4r5gdEc-129" value="registo de data e hora" style="ellipse;whiteSpace=wrap;html=1;" vertex="1" parent="1">
          <mxGeometry x="190" y="2540" width="140" height="70" as="geometry" />
        </mxCell>
        <mxCell id="ppIVRf_82uOVk4r5gdEc-130" value="pagamento do aluguel&amp;nbsp;" style="ellipse;whiteSpace=wrap;html=1;" vertex="1" parent="1">
          <mxGeometry x="190" y="2640" width="140" height="70" as="geometry" />
        </mxCell>
        <mxCell id="ppIVRf_82uOVk4r5gdEc-131" value="Cliente" style="shape=umlActor;html=1;verticalLabelPosition=bottom;verticalAlign=top;align=center;" vertex="1" parent="1">
          <mxGeometry x="510" y="2520" width="55" height="80" as="geometry" />
        </mxCell>
        <mxCell id="ppIVRf_82uOVk4r5gdEc-132" value="" style="edgeStyle=none;html=1;endArrow=none;verticalAlign=bottom;rounded=0;" edge="1" parent="1">
          <mxGeometry width="160" relative="1" as="geometry">
            <mxPoint x="80" y="2420" as="sourcePoint" />
            <mxPoint x="190" y="2390" as="targetPoint" />
          </mxGeometry>
        </mxCell>
        <mxCell id="ppIVRf_82uOVk4r5gdEc-133" value="" style="edgeStyle=none;html=1;endArrow=none;verticalAlign=bottom;rounded=0;" edge="1" parent="1">
          <mxGeometry width="160" relative="1" as="geometry">
            <mxPoint x="60" y="2420" as="sourcePoint" />
            <mxPoint x="192" y="2290" as="targetPoint" />
          </mxGeometry>
        </mxCell>
        <mxCell id="ppIVRf_82uOVk4r5gdEc-134" value="" style="edgeStyle=none;html=1;endArrow=none;verticalAlign=bottom;rounded=0;" edge="1" parent="1">
          <mxGeometry width="160" relative="1" as="geometry">
            <mxPoint x="70" y="2530" as="sourcePoint" />
            <mxPoint x="190" y="2680" as="targetPoint" />
          </mxGeometry>
        </mxCell>
        <mxCell id="ppIVRf_82uOVk4r5gdEc-135" value="" style="edgeStyle=none;html=1;endArrow=none;verticalAlign=bottom;rounded=0;" edge="1" parent="1">
          <mxGeometry width="160" relative="1" as="geometry">
            <mxPoint x="90" y="2470" as="sourcePoint" />
            <mxPoint x="190" y="2490" as="targetPoint" />
          </mxGeometry>
        </mxCell>
        <mxCell id="ppIVRf_82uOVk4r5gdEc-136" value="" style="edgeStyle=none;html=1;endArrow=none;verticalAlign=bottom;rounded=0;" edge="1" parent="1">
          <mxGeometry width="160" relative="1" as="geometry">
            <mxPoint x="100" y="2520" as="sourcePoint" />
            <mxPoint x="190" y="2580" as="targetPoint" />
          </mxGeometry>
        </mxCell>
        <mxCell id="ppIVRf_82uOVk4r5gdEc-137" value="" style="edgeStyle=none;html=1;endArrow=none;verticalAlign=bottom;rounded=0;exitX=0.5;exitY=0;exitDx=0;exitDy=0;exitPerimeter=0;" edge="1" parent="1">
          <mxGeometry width="160" relative="1" as="geometry">
            <mxPoint x="330" y="2680" as="sourcePoint" />
            <mxPoint x="500" y="2590" as="targetPoint" />
          </mxGeometry>
        </mxCell>
        <mxCell id="ppIVRf_82uOVk4r5gdEc-138" value="" style="edgeStyle=none;html=1;endArrow=none;verticalAlign=bottom;rounded=0;" edge="1" parent="1">
          <mxGeometry width="160" relative="1" as="geometry">
            <mxPoint y="2200" as="sourcePoint" />
            <mxPoint x="810" y="2200" as="targetPoint" />
          </mxGeometry>
        </mxCell>
        <mxCell id="ppIVRf_82uOVk4r5gdEc-141" value="" style="edgeStyle=none;html=1;endArrow=none;verticalAlign=bottom;rounded=0;" edge="1" parent="1">
          <mxGeometry width="160" relative="1" as="geometry">
            <mxPoint x="400" y="540" as="sourcePoint" />
            <mxPoint x="400" y="1170" as="targetPoint" />
          </mxGeometry>
        </mxCell>
        <mxCell id="ppIVRf_82uOVk4r5gdEc-142" value="" style="edgeStyle=none;html=1;endArrow=none;verticalAlign=bottom;rounded=0;" edge="1" parent="1">
          <mxGeometry width="160" relative="1" as="geometry">
            <mxPoint y="540" as="sourcePoint" />
            <mxPoint x="820" y="540" as="targetPoint" />
          </mxGeometry>
        </mxCell>
        <mxCell id="ppIVRf_82uOVk4r5gdEc-144" value="1" style="rounded=1;whiteSpace=wrap;html=1;arcSize=37;" vertex="1" parent="1">
          <mxGeometry x="10" y="20" width="30" height="30" as="geometry" />
        </mxCell>
        <mxCell id="ppIVRf_82uOVk4r5gdEc-145" value="2" style="rounded=1;whiteSpace=wrap;html=1;" vertex="1" parent="1">
          <mxGeometry x="10" y="1754" width="30" height="30" as="geometry" />
        </mxCell>
        <mxCell id="ppIVRf_82uOVk4r5gdEc-146" value="3" style="rounded=1;whiteSpace=wrap;html=1;" vertex="1" parent="1">
          <mxGeometry x="10" y="2220" width="30" height="30" as="geometry" />
        </mxCell>
        <mxCell id="ppIVRf_82uOVk4r5gdEc-148" value="" style="edgeStyle=none;html=1;endArrow=none;verticalAlign=bottom;rounded=0;" edge="1" parent="1">
          <mxGeometry width="160" relative="1" as="geometry">
            <mxPoint x="330" y="2390" as="sourcePoint" />
            <mxPoint x="500" y="2540" as="targetPoint" />
          </mxGeometry>
        </mxCell>
      </root>
    </mxGraphModel>
  </diagram>
</mxfile>
